# xmcd CD database file
#
# Track frame offsets:
#	150
#	17194
#	30102
#	50964
#	68497
#	85482
#	98735
#	113478
#	130743
#	150351
#	167873
#	186355
#	201069
#	220554
#	235631
#	252633
#	269402
#	290060
#	307323
#	325450
#
# Disc length: 4548 seconds
#
# Revision: 0
# Processed by: cddbd v1.5.2PL0 Copyright (c) Steve Scherf et al.
# Submitted via: CDex 1.51
#
DISCID=1f11c214
DTITLE=Bruno e Marrone - Coletanea da Lurdes
DYEAR=1900
DGENRE=Country
TTITLE0=Bruno e Marrone - Machuca Demais
TTITLE1=Bruno e Marrone - Fruto Especial
TTITLE2=Bruno e marrone - bijuteria
TTITLE3=Bruno e Marrone - Medo
TTITLE4=Bruno e Marrone - Agarrada em mim
TTITLE5=Bruno e Marrone - 24 Horas de Amor
TTITLE6=Bruno e Marrone - Preciso Amar de Novo
TTITLE7=Bruno e Marrone - Paixao demais
TTITLE8=Bruno e Marrone - bebo e choro
TTITLE9=Bruno e Marrone - Bar Solidão
TTITLE10=Bruno e Marrone - Coração de pedra
TTITLE11=Bruno e Marrone - Favo De Mel
TTITLE12=Bruno e Marrone - Meu jeito de sentir
TTITLE13=Bruno e Marrone - Só Sei te Amar
TTITLE14=Bruno e Marrone - Como eu te amo
TTITLE15=Bruno and Marrone - Metade da Metade
TTITLE16=Bruno e Marrone - Se Tiver Coragem Joga Fora
TTITLE17=Bruno e Marrone - Entao pode ir
TTITLE18=Bruno e Marrone - Vai dar namoro
TTITLE19=Bruno e Marrone - ligação urbana
EXTD=
EXTT0=
EXTT1=
EXTT2=
EXTT3=
EXTT4=
EXTT5=
EXTT6=
EXTT7=
EXTT8=
EXTT9=
EXTT10=
EXTT11=
EXTT12=
EXTT13=
EXTT14=
EXTT15=
EXTT16=
EXTT17=
EXTT18=
EXTT19=
PLAYORDER=
